# AST/ASF file generated using VICON BodyLanguage
# -----------------------------------------------
:version 1.10
:name VICON
:units
  mass 1.0
  length 0.45
  angle deg
:documentation
   .ast/.asf automatically generated from VICON data using
   VICON BodyBuilder and BodyLanguage model FoxedUp or BRILLIANT.MOD
:root
   order TX TY TZ RX RY RZ
   axis XYZ
   position 0 0 0  
   orientation 0 0 0 
:bonedata
  begin
     id 1 
     name lhipjoint
     direction 0.63403 -0.759788 0.143974 
     length 2.51904 
     axis 0 0 0  XYZ
  end
  begin
     id 2 
     name lfemur
     direction 0.34202 -0.939693 0  
     length 7.42313  
     axis 0 0 20  XYZ
    dof rx ry rz
    limits (-160.0 20.0)
           (-70.0 70.0)
           (-60.0 70.0)
  end
  begin
     id 3 
     name ltibia
     direction 0.34202 -0.939693 0   
     length 8.10141   
     axis 0 0 20   XYZ
    dof rx
    limits (-10.0 170.0)
  end
  begin
     id 4 
     name lfoot
     direction 0.0927455 -0.254816 0.962532   
     length 2.14078   
     axis -90 7.62852e-016 20   XYZ
    dof rx rz
    limits (-45.0 90.0)
           (-70.0 20.0)
  end
  begin
     id 5 
     name ltoes
     direction 1.53556e-011 -4.21949e-011 1   
     length 1.07182   
     axis -90 7.62852e-016 20   XYZ
    dof rx
    limits (-90.0 20.0)
  end
  begin
     id 6 
     name rhipjoint
     direction -0.659892 -0.738223 0.139888   
     length 2.59263  
     axis 0 0 0  XYZ 
  end
  begin
     id 7 
     name rfemur
     direction -0.34202 -0.939693 0   
     length 7.58575   
     axis 0 0 -20   XYZ
    dof rx ry rz
    limits (-160.0 20.0)
           (-70.0 70.0)
           (-70.0 60.0)
  end
  begin
     id 8 
     name rtibia
     direction -0.34202 -0.939693 0   
     length 8.19358   
     axis 0 0 -20   XYZ
    dof rx
    limits (-10.0 170.0)
 end
 begin
     id 9 
     name rfoot
     direction -0.0856543 -0.235333 0.968133   
     length 2.13415  
     axis -90 -7.62852e-016 -20   XYZ
    dof rx rz
    limits (-45.0 90.0)
           (-20.0 70.0)
  end
  begin
     id 10 
     name rtoes
     direction -1.53551e-011 -4.21811e-011 1   
     length 1.07055   
     axis -90 -7.62852e-016 -20   XYZ
    dof rx
    limits (-90.0 20.0)
  end
  begin
     id 11 
     name lowerback
     direction 0.025219 0.998394 -0.0507326   
     length 1.91844   
     axis 0 0 0   XYZ
    dof rx ry rz
    limits (-20.0 45.0)
           (-30.0 30.0)
           (-30.0 30.0)
  end
  begin
     id 12 
     name upperback
     direction 0.0213103 0.99967 -0.0143101   
     length 1.92246   
     axis 0 0 0   XYZ
    dof rx ry rz
    limits (-20.0 45.0)
           (-30.0 30.0)
           (-30.0 30.0)
  end
  begin
     id 13 
     name thorax
     direction 0.00920974 0.99991 0.00971518   
     length 1.92239   
     axis 0 0 0   XYZ
    dof rx ry rz
    limits (-20.0 45.0)
           (-30.0 30.0)
           (-30.0 30.0)
  end
  begin
     id 14 
     name lowerneck
     direction 0.0598257 0.997249 0.0437612   
     length 3.13679   
     axis 0 0 0   XYZ
    dof rx ry rz
    limits (-20.0 45.0)
           (-30.0 30.0)
           (-30.0 30.0)
  end
  begin
     id 15 
     name upperneck
     direction -0.035342 0.999338 0.00863891   
     length 3.16283   
     axis 0 0 0   XYZ
    dof rx ry rz
    limits (-20.0 45.0)
           (-30.0 30.0)
           (-30.0 30.0)
  end
  begin
     id 16
     name head
     direction 0.37144 0.811566 0.450991  
     length 1.2838  
     axis 0 0 0   XYZ
    dof rx ry rz
    limits (-20.0 45.0)
           (-30.0 30.0)
           (-30.0 30.0)
  end
  begin
     id 17 
     name lclavicle
     direction 0.961094 0.274654 -0.0293862  
     length 3.63466  
     axis 0 0 0   XYZ
    dof ry rz
    limits (-20.0 10.0)
           (0.0 20.0)
  end
  begin
     id 18 
     name lhumerus
     direction 1 -4.48963e-011 1.10303e-027   
     length 5.12842   
     axis 180 -30 -90   XYZ
    dof rx ry rz
    limits (-60.0 90.0)
           (-90.0 90.0)
           (-90.0 90.0)
  end
  begin
     id 19
     name lradius
     direction 1 -4.48968e-011 4.13199e-027   
     length 3.47396   
     axis 180 -30 -90   XYZ
    dof rx
    limits (-10.0 170.0)
  end
  begin
     id 20
     name lwrist
     direction 1 -4.48948e-011 9.12708e-027   
     length 1.73698   
     axis -6.84618e-015 90 90   XYZ
    dof ry
    limits (-180.0 0.0)
 end
  begin
     id 21 
     name lhand
     direction 1 -4.49057e-011 1.82749e-026   
     length 0.728607   
     axis -1.16502e-014 90 90   XYZ
    dof rx rz
    limits (-90.0 90.0)
           (-45.0 45.0)
  end
  begin
     id 22 
     name lfingers
     direction 1 -4.48912e-011 3.64949e-026   
     length 0.587422   
     axis -2.33008e-014 90 90   XYZ
    dof rx
    limits (0.0 90.0)
  end
  begin
     id 23
     name lthumb
     direction 0.707107 -6.34995e-011 0.707107   
     length 0.843424   
     axis -90 45 5.69224e-014   XYZ
    dof rx rz
    limits (-45.0 45.0)
           (-45.0 45.0)
  end
  begin
     id 24 
     name rclavicle
     direction -0.90514 0.421881 -0.0523369   
     length 3.57139  
     axis 0 0 0   XYZ 
    dof ry rz
    limits (-10.0 20.0)
           (-20.0 0.0)
  end
  begin
     id 25 
     name rhumerus
     direction -1 -4.48954e-011 -1.76662e-027  
     length 5.48477   
     axis 180 30 90   XYZ
    dof rx ry rz
    limits (-90.0 60.0)
           (-90.0 90.0)
           (-90.0 90.0)
  end
  begin
     id 26 
     name rradius
     direction -1 -4.48982e-011 1.26841e-027   
     length 3.47856   
     axis 180 30 90   XYZ
    dof rx
    limits (-10.0 170.0)
  end
  begin
     id 27 
     name rwrist
     direction -1 -4.49037e-011 9.13554e-027   
     length 1.73928   
     axis -6.84618e-015 -90 -90   XYZ
    dof ry
    limits (-180.0 0.0)
  end
  begin
     id 28
     name rhand
     direction -1 -4.48871e-011 1.82397e-026   
     length 0.709974   
     axis -1.16502e-014 -90 -90   XYZ
    dof rx rz
    limits (-90.0 90.0)
           (-45.0 45.0)
  end
  begin
     id 29
     name rfingers
     direction -1 -4.48994e-011 3.65258e-026   
     length 0.572399   
     axis -2.33008e-014 -90 -90   XYZ
    dof rx
    limits (0.0 90.0)
  end
  begin
     id 30
     name rthumb
     direction -0.707107 -6.34861e-011 0.707107   
     length 0.821855   
     axis -90 -45 -5.69224e-014   XYZ
    dof rx rz
    limits (-45.0 45.0)
           (-45.0 45.0)
  end
:hierarchy
  begin
    root lhipjoint rhipjoint lowerback
    lhipjoint lfemur
    lfemur ltibia
    ltibia lfoot
    lfoot ltoes
    rhipjoint rfemur
    rfemur rtibia
    rtibia rfoot
    rfoot rtoes
    lowerback upperback
    upperback thorax
    thorax lowerneck lclavicle rclavicle
    lowerneck upperneck
    upperneck head
    lclavicle lhumerus
    lhumerus lradius
    lradius lwrist
    lwrist lhand lthumb
    lhand lfingers
    rclavicle rhumerus
    rhumerus rradius
    rradius rwrist
    rwrist rhand rthumb
    rhand rfingers
  end

#!OML:ASF F:\VICON\USERDATA\INSTALL\Justin1\Justin1.ASF
:FULLY-SPECIFIED
:DEGREES
2321
root -0.0516537 18.1966 -3.08639 3.54015 0.686573 -2.44834
lowerback 0.752873 -1.50415 0.721087
upperback -0.436898 -1.97799 2.64157
thorax -0.800517 -0.986322 2.33118
lowerneck -7.42365 -8.73708 -9.07864
upperneck 7.8057 -10.9652 2.74013
head 4.18995 -5.54795 1.58268
rclavicle 2.4376e-014 -3.18055e-015
rhumerus -97.9806 32.1218 -109.877
rradius 112.176
rwrist 18.4932
rhand -41.0044 63.234
rfingers 7.12502
rthumb -13.9359 33.721
lclavicle 2.4376e-014 -3.18055e-015
lhumerus -94.8042 -25.4055 112.636
lradius 106.356
lwrist -21.3678
lhand -32.7976 7.83708
lfingers 7.12502
lthumb -6.0188 37.7316
rfemur -12.372 7.64132 27.3028
rtibia 32.5575
rfoot -20.2369 -17.3744
rtoes 28.5026
lfemur -11.9575 -9.6437 -18.8585
ltibia 28.5253
lfoot -18.0204 8.41162
ltoes 7.823
2322
root -0.048153 18.1981 -3.08374 3.58905 0.701141 -2.55435
lowerback 0.718029 -1.49095 0.861085
upperback -0.452458 -1.95895 2.67476
thorax -0.801149 -0.977386 2.28584
lowerneck -7.44902 -8.76859 -8.9986
upperneck 7.82219 -11.0027 2.62208
head 4.19014 -5.56981 1.53109
rclavicle 1.47349e-014 -1.39149e-014
rhumerus -97.9329 32.117 -109.846
rradius 112.121
rwrist 18.4801
rhand -41.278 63.0575
rfingers 7.12502
rthumb -14.1995 33.5628
lclavicle 1.47349e-014 -1.39149e-014
lhumerus -94.7445 -25.3774 112.573
lradius 106.328
lwrist -21.3895
lhand -32.7979 7.68796
lfingers 7.12502
lthumb -6.0191 37.5825
rfemur -12.3849 7.72089 27.4117
rtibia 32.5076
rfoot -20.1839 -17.4701
rtoes 28.3546
lfemur -11.9897 -9.63618 -18.7462
ltibia 28.4742
lfoot -17.9771 8.4246
ltoes 7.65857
2323
root -0.0423043 18.199 -3.07675 3.59693 0.727903 -2.60275
lowerback 0.641372 -1.4874 0.988935
upperback -0.430586 -1.95527 2.69242
thorax -0.739556 -0.976341 2.22958
lowerneck -7.44798 -8.78845 -9.08258
upperneck 7.8256 -11.0248 2.67124
head 4.19977 -5.5807 1.5563
rclavicle -5.49143e-015 1.66979e-014
rhumerus -97.8499 32.1691 -109.784
rradius 112.047
rwrist 18.4958
rhand -41.4706 63.0513
rfingers 7.12502
rthumb -14.3851 33.5697
lclavicle -5.49143e-015 1.66979e-014
lhumerus -94.6622 -25.3559 112.548
lradius 106.248
lwrist -21.4967
lhand -32.8738 7.74118
lfingers 7.12502
lthumb -6.09237 37.6336
rfemur -12.3379 7.69074 27.4434
rtibia 32.4441
rfoot -20.0867 -17.5159
rtoes 27.9033
lfemur -11.9718 -9.66607 -18.7177
ltibia 28.4718
lfoot -17.97 8.46808
ltoes 7.48705
2324
root -0.0382274 18.2009 -3.07372 3.66684 0.754592 -2.56812
lowerback 0.595249 -1.48449 1.00633
upperback -0.460143 -1.95158 2.69504
thorax -0.744594 -0.974481 2.22167
lowerneck -7.44117 -8.80482 -9.15746
upperneck 7.84353 -11.041 2.68926
head 4.21035 -5.59019 1.57122
rclavicle 2.26615e-014 -1.51076e-014
rhumerus -97.8371 32.1781 -109.746
rradius 111.969
rwrist 18.5572
rhand -41.5655 63.0714
rfingers 7.12502
rthumb -14.4766 33.5964
lclavicle 2.26615e-014 -1.51076e-014
lhumerus -94.5926 -25.3142 112.534
lradius 106.164
lwrist -21.5463
lhand -32.8494 7.92076
lfingers 7.12502
lthumb -6.06879 37.8138
rfemur -12.3801 7.63975 27.3773
rtibia 32.3844
rfoot -19.9922 -17.483
rtoes 27.6633
lfemur -12.0446 -9.59853 -18.7539
ltibia 28.4953
lfoot -18.0189 8.37288
ltoes 7.55665
2325
root -0.0367554 18.2023 -3.07388 3.77973 0.777333 -2.55276
lowerback 0.594855 -1.48714 0.992092
upperback -0.524525 -1.95335 2.7084
thorax -0.809364 -0.974974 2.24463
lowerneck -7.48771 -8.82349 -9.11465
upperneck 7.86559 -11.0557 2.58001
head 4.21697 -5.60137 1.5284
rclavicle -2.77802e-014 2.50469e-014
rhumerus -97.82 32.2142 -109.712
rradius 111.921
rwrist 18.6039
rhand -41.4834 63.2112
rfingers 7.12502
rthumb -14.3975 33.7305
lclavicle -2.77802e-014 2.50469e-014
lhumerus -94.5519 -25.2664 112.474
lradius 106.1
lwrist -21.591
lhand -32.9016 8.04306
lfingers 7.12502
lthumb -6.11924 37.9347
rfemur -12.4944 7.70333 27.3438
rtibia 32.3521
rfoot -20.0666 -17.4999
rtoes 27.8898
lfemur -12.1825 -9.65298 -18.7454
ltibia 28.5041
lfoot -18.015 8.32684
ltoes 8.09694
